<?xml version="1.0" encoding="UTF-8"?>
<svg width="512px" height="512px" viewBox="0 0 512 512" version="1.1" xmlns="http://www.w3.org/2000/svg" xmlns:xlink="http://www.w3.org/1999/xlink">
    <title>windbase copy 2</title>
    <defs>
        <linearGradient x1="48.0642914%" y1="100%" x2="70.3361365%" y2="2.17083002%" id="linearGradient-1">
            <stop stop-color="#6160FF" offset="0%"></stop>
            <stop stop-color="#46ADF1" offset="100%"></stop>
        </linearGradient>
        <path d="M256.5,67 C361.15796,67 446,151.84204 446,256.5 C446,361.15796 361.15796,446 256.5,446 C151.84204,446 67,361.15796 67,256.5 C67,151.84204 151.84204,67 256.5,67 Z M256.5,148.602871 C196.910061,148.602871 148.602871,196.910061 148.602871,256.5 C148.602871,316.089939 196.910061,364.397129 256.5,364.397129 C316.089939,364.397129 364.397129,316.089939 364.397129,256.5 C364.397129,196.910061 316.089939,148.602871 256.5,148.602871 Z" id="path-2"></path>
        <filter x="-16.1%" y="-15.6%" width="132.2%" height="132.2%" filterUnits="objectBoundingBox" id="filter-3">
            <feMorphology radius="0.5" operator="dilate" in="SourceAlpha" result="shadowSpreadOuter1"></feMorphology>
            <feOffset dx="0" dy="2" in="shadowSpreadOuter1" result="shadowOffsetOuter1"></feOffset>
            <feGaussianBlur stdDeviation="19.5" in="shadowOffsetOuter1" result="shadowBlurOuter1"></feGaussianBlur>
            <feColorMatrix values="0 0 0 0 0.317647059   0 0 0 0 0.560784314   0 0 0 0 0.968627451  0 0 0 0.441761364 0" type="matrix" in="shadowBlurOuter1"></feColorMatrix>
        </filter>
    </defs>
    <g id="windbase-copy-2" stroke="none" stroke-width="1" fill="none" fill-rule="evenodd">
        <rect id="Rectangle" fill="#FFFFFF" x="0" y="0" width="512" height="512" rx="143"></rect>
        <g id="windbase-circle">
            <use fill="black" fill-opacity="1" filter="url(#filter-3)" xlink:href="#path-2"></use>
            <use fill="url(#linearGradient-1)" fill-rule="evenodd" xlink:href="#path-2"></use>
        </g>
    </g>
</svg>